<?xml version="1.0" standalone="no"?>
<!DOCTYPE svg PUBLIC "-//W3C//DTD SVG 20010904//EN"
 "http://www.w3.org/TR/2001/REC-SVG-20010904/DTD/svg10.dtd">
<svg version="1.0" xmlns="http://www.w3.org/2000/svg"
 width="323.000000pt" height="323.000000pt" viewBox="0 0 323.000000 323.000000"
 preserveAspectRatio="xMidYMid meet">
<metadata>
Created by potrace 1.14, written by Peter Selinger 2001-2017
</metadata>
<g transform="translate(0.000000,323.000000) scale(0.100000,-0.100000)"
fill="#000000" stroke="none">
<path d="M324 3210 c-131 -42 -243 -146 -296 -278 l-23 -57 -3 -1225 c-2 -909
0 -1239 9 -1280 33 -159 153 -291 307 -341 54 -17 123 -18 1288 -18 1342 -1
1270 -4 1386 55 98 50 192 175 218 289 7 31 11 455 11 1269 0 1104 -2 1226
-16 1276 -48 158 -167 272 -330 316 -41 11 -277 14 -1270 13 -1175 0 -1222 -1
-1281 -19z"/>
</g>
</svg>
